<?xml version="1.0" encoding="utf-8"?>
<!-- Generator: Adobe Illustrator 24.2.3, SVG Export Plug-In . SVG Version: 6.00 Build 0)  -->
<svg version="1.1" id="Capa_1" xmlns="http://www.w3.org/2000/svg" xmlns:xlink="http://www.w3.org/1999/xlink" x="0px" y="0px"
	 viewBox="0 0 612 612" style="enable-background:new 0 0 612 612;" xml:space="preserve">
<style type="text/css">
	.st0{fill:#F7F7F7;}
</style>
<g>
	<g id="XMLID_1_">
		<g>
			<path class="st0" d="M603.7,296.3c7.2,2.8,8.3,7.3,8.3,9.8c0,2.5-1.1,7-8.3,9.8l-90.1,35c-2,0.8-3.9,1.1-5.8,1.1
				c-7.6,0-13.1-5.9-13.1-14.1v-63.6c0-8.2,5.5-14.1,13.1-14.1c1.9,0,3.9,0.4,5.8,1.1L603.7,296.3z"/>
			<path class="st0" d="M523.5,91c1.4,2.1,2.5,5.8,0,11.4l-39,88.5c-2.4,5.5-7,8.8-12.4,8.8c-3.6,0-7.3-1.6-10.2-4.5l-45-45
				c-3.6-3.6-5.1-8.1-4.3-12.5c0.8-4.4,3.9-8,8.5-10.1l88.5-39c2.2-1,4.3-1.5,6.3-1.5C519.1,87.1,521.8,88.5,523.5,91z"/>
			<path class="st0" d="M523.4,509.6c2.5,5.6,1.4,9.3,0,11.4c-1.6,2.5-4.4,3.9-7.6,3.9c-1.9,0-4-0.5-6.3-1.5l-88.5-39
				c-4.6-2-7.7-5.7-8.5-10c-0.8-4.4,0.8-8.9,4.3-12.5l45-45c2.9-2.9,6.5-4.5,10.2-4.5c5.3,0,9.9,3.3,12.4,8.8L523.4,509.6z"/>
			<circle class="st0" cx="306" cy="306" r="156.7"/>
			<path class="st0" d="M350.8,98.4c1.8,4.7,1.4,9.5-1.1,13.1c-2.5,3.7-6.8,5.8-11.9,5.8h-63.6c-5,0-9.4-2.1-11.9-5.8
				c-2.5-3.7-2.9-8.5-1.1-13.1l35-90.1C299,1.1,303.6,0,306,0s7,1.1,9.8,8.3L350.8,98.4z"/>
			<path class="st0" d="M349.7,500.5c2.5,3.7,2.9,8.5,1.1,13.1l-35,90.1c-2.8,7.2-7.3,8.3-9.8,8.3s-7-1.1-9.8-8.3l-35-90.1
				c-1.8-4.7-1.4-9.5,1.1-13.1c2.5-3.7,6.8-5.8,11.9-5.8h63.6C342.8,494.7,347.2,496.8,349.7,500.5z"/>
			<path class="st0" d="M199.4,137.6c0.8,4.4-0.8,8.9-4.3,12.5l-45,45c-2.9,2.9-6.5,4.5-10.2,4.5c-5.3,0-9.9-3.3-12.3-8.8l-39-88.5
				c-2.5-5.6-1.4-9.3,0-11.4c1.6-2.5,4.4-3.9,7.6-3.9c1.9,0,4,0.5,6.3,1.5l88.5,39C195.4,129.6,198.5,133.2,199.4,137.6z"/>
			<path class="st0" d="M195,461.9c3.6,3.6,5.1,8.1,4.3,12.5c-0.8,4.4-3.9,8-8.5,10.1l-88.5,39c-2.2,1-4.3,1.5-6.3,1.5
				c-3.2,0-6-1.4-7.6-3.9c-1.4-2.1-2.5-5.7,0-11.4l39-88.5c2.4-5.5,7-8.8,12.3-8.8c3.6,0,7.3,1.6,10.2,4.5L195,461.9z"/>
			<path class="st0" d="M117.3,274.2v63.6c0,8.1-5.5,14.1-13.1,14.1c-1.9,0-3.9-0.4-5.8-1.1l-90.1-35C1.1,313,0,308.5,0,306
				c0-2.4,1.1-7,8.3-9.8l90.1-35c1.9-0.8,3.9-1.1,5.8-1.1C111.8,260.1,117.3,266,117.3,274.2z"/>
		</g>
		<g>
		</g>
	</g>
</g>
</svg>
